<svg id="Layer_1" data-name="Layer 1" xmlns="http://www.w3.org/2000/svg" viewBox="0 0 1735.13 1400">
    <defs>
        <style>
            .cls-1{fill:#fff;}.cls-2{fill:#ff7261;}.cls-3{fill:#58595b;}.cls-4{fill:#aec6eb;}.cls-5{fill:#6a5f74;}.cls-6{fill:#e0e0e0;}.cls-7{fill:#524959;}.cls-8{fill:#adadad;}.cls-9{fill:none;}.cls-10{fill:#a8a8a8;}.cls-11{fill:#bdbdbd;}.cls-12{fill:#b6b8bd;}.cls-13{fill:#d8dbe0;}.cls-14{fill:#68be65;}.cls-15{fill:#a1cd42;}.cls-16{fill:#1eb474;}.cls-17{fill:#1ba66b;}.cls-18{fill:#60b05d;}.cls-19{fill:#c9be91;}.cls-20{fill:#e2d6a4;}.cls-21{opacity:0.1;}
        </style>
    </defs>
    <title>phoneArtboard 2</title>
    <path class="cls-1"
          d="M691.54,277.46h-32a11.7,11.7,0,0,1,0-23.39h27.84a22.24,22.24,0,1,0,0-44.47h-216a22.24,22.24,0,1,0,0,44.47h53a11.7,11.7,0,0,1,0,23.39H380.45a32,32,0,1,0,0,64H691.54a32,32,0,1,0,0-64Z"/>
    <path class="cls-1"
          d="M1302.15,390.09a23.2,23.2,0,0,1-23.21,23.2H1052.54a23.21,23.21,0,0,1-23.2-23.2h0a23.2,23.2,0,0,1,23.2-23.2h226.41a23.19,23.19,0,0,1,23.21,23.2Z"/>
    <path class="cls-1"
          d="M1149.09,222.12a28.82,28.82,0,0,1-28.82,28.82h-155a28.81,28.81,0,0,1-28.81-28.82h0a28.81,28.81,0,0,1,28.81-28.82h155a28.82,28.82,0,0,1,28.82,28.82Z"/>
    <path class="cls-1"
          d="M1611,449.68h-73.26a14,14,0,0,1,0-28.08h73.78a25.18,25.18,0,1,0,0-50.36H1402a25.18,25.18,0,1,0,0,50.36h53.37a14,14,0,0,1,0,28.08h-52.85a39.84,39.84,0,1,0,0,79.69H1611a39.84,39.84,0,1,0,0-79.69Z"/>
    <path class="cls-1" d="M1283.5,222.12a28.82,28.82,0,1,1-28.82-28.82A28.81,28.81,0,0,1,1283.5,222.12Z"/>
    <path class="cls-1"
          d="M222.09,472.31a28.83,28.83,0,0,1,28.83-28.82H499.83a28.82,28.82,0,0,1,28.82,28.82h0a28.82,28.82,0,0,1-28.82,28.82H250.91a28.83,28.83,0,0,1-28.83-28.82Z"/>
    <circle class="cls-1" cx="116.5" cy="472.32" r="28.82"/>
    <circle class="cls-1" cx="1237.74" cy="496.12" r="32.34"/>
    <path class="cls-1"
          d="M375.36,587a20.48,20.48,0,0,0,20.48,20.48H507.17A20.48,20.48,0,0,0,527.65,587h0a20.48,20.48,0,0,0-20.48-20.48H395.85A20.49,20.49,0,0,0,375.36,587Z"/>
    <path class="cls-1"
          d="M1491,621a20.47,20.47,0,0,1-20.48,20.48H1363.43A20.47,20.47,0,0,1,1343,621h0a20.48,20.48,0,0,1,20.47-20.49h107.11A20.48,20.48,0,0,1,1491,621Z"/>
    <polygon class="cls-2"
             points="856.1 122.71 856.1 141.18 856.1 159.27 856.1 177.36 856.1 195.84 776.94 195.84 788.25 177.36 776.94 159.27 788.25 141.18 776.94 122.71 856.1 122.71"/>
    <path class="cls-3" d="M866.1,324.07a5,5,0,0,1-5,5h0a5,5,0,0,1-5-5V111.15a5,5,0,0,1,5-5h0a5,5,0,0,1,5,5Z"/>
    <path class="cls-4"
          d="M1681.6,1194.29a12.42,12.42,0,0,0-1.93-6.44L1497.25,891.13c-6.47-5.91-22.24-5.07-22.24-5.07H300.7s-15.77-.84-22.23,5.07L59,1187.85a12.44,12.44,0,0,0-1.92,6.44h0s.35,81.15,115.32,81.15H1566.34c115,0,115.32-81.15,115.32-81.15Z"/>
    <path class="cls-1"
          d="M1600,1134.71,1417.6,838c-6.48-5.91-22.24-5.07-22.24-5.07H376.72S361,832.09,354.49,838L135,1134.71s-10.69,15.95,18.2,15.95H1581.83C1610.72,1150.66,1600,1134.71,1600,1134.71Z"/>
    <polygon class="cls-5"
             points="781.93 576.25 825.63 525.46 721.3 476.73 668.06 549.21 662.37 556.96 662.35 556.98 434.23 867.5 715.54 867.5 945.14 867.5 781.93 576.25"/>
    <polygon class="cls-6"
             points="916.12 417.37 1056.7 545.7 949.09 403.33 862.17 284.99 861.77 285.53 825.63 525.46 916.12 417.37"/>
    <polygon class="cls-7"
             points="1056.7 545.7 916.12 417.37 825.63 525.46 781.93 576.25 945.14 867.5 1299.93 867.5 1056.7 545.7"/>
    <polygon class="cls-1" points="861.77 285.53 767.53 413.81 721.3 476.73 825.63 525.46 861.77 285.53"/>
    <path class="cls-8" d="M1602,1141.16s-.35,81.15-115.32,81.15H248.43c-115,0-115.32-81.15-115.32-81.15"/>
    <polygon class="cls-9"
             points="1298.13 858.63 867.54 858.63 436.93 858.63 311.48 1101.31 867.54 1101.31 1423.58 1101.31 1298.13 858.63"/>
    <path class="cls-10"
          d="M1410.71,937.32c20.88.16,44,17.6,51.75,39a38.24,38.24,0,0,1,2.14,9.52,35.12,35.12,0,0,0-2.14-15.69c-7.71-21.36-30.87-38.79-51.75-39-18.34-.14-29.8,13.21-28.18,31.06C1383.79,947.55,1394.56,937.2,1410.71,937.32Z"/>
    <path class="cls-11"
          d="M1435.72,1008.78c16.59,0,27.43-9.45,28.88-23a38.24,38.24,0,0,0-2.14-9.52c-7.71-21.36-30.87-38.8-51.75-39-16.16-.13-26.93,10.23-28.18,24.89a41.74,41.74,0,0,0,1.43,7.61C1390.07,991.34,1413.24,1008.78,1435.72,1008.78Z"/>
    <polygon class="cls-9" points="668.06 549.21 662.35 556.98 662.37 556.96 668.06 549.21"/>
    <polygon class="cls-12"
             points="1214.46 739.46 1045.05 641.71 1009.97 566.22 1009.31 564.78 918.79 471.97 966.95 586.93 992.21 654.92 1169.39 771.48 1205.4 863.96 1299.93 863.96 1214.46 739.46"/>
    <polygon class="cls-13"
             points="1169.39 771.48 992.21 654.92 966.95 586.93 918.79 471.97 917.62 470.75 801 613.17 754.42 670.02 801 757.69 867.29 801.99 882.77 863.96 1205.4 863.96 1169.39 771.48"/>
    <polygon class="cls-12"
             points="867.29 801.99 801 757.69 754.42 670.02 693.36 626.19 720.99 670.08 729.55 683.68 771.13 772.26 856.22 823.55 882.77 863.96 867.29 801.99"/>
    <polygon class="cls-13"
             points="856.22 823.55 771.13 772.26 729.55 683.68 720.99 670.08 693.36 626.19 692.26 625.4 639.25 674.63 520.54 783.8 433.37 863.96 528.08 863.96 612.78 863.96 882.77 863.96 856.22 823.55"/>
    <path class="cls-9"
          d="M953.14,958.48,1058,1013.84c3.89-4.54,7.55-9.06,11-13.55L970,944.49C964.67,949.17,959.09,953.84,953.14,958.48Z"/>
    <path class="cls-14" d="M1423.6,1101.31,1299.37,861,1090,743.14c23.65,35.9,72.51,136.67-21,257.15l179.39,101Z"/>
    <path class="cls-15" d="M601.35,971,371.4,1101.28H648.75C600.29,1056.1,599.17,996.54,601.35,971Z"/>
    <path class="cls-15"
          d="M1248.45,1101.31l-342-192.57c-25.2-14.22-57.95-21.77-91.14-22.64-37.52-1-75.62,6.56-104.11,22.64l-62.61,35.47c4.59,24.47,33.15,108.45,209.72,157.08h390.11Z"/>
    <path class="cls-16"
          d="M455.55,932.48,715.11,810.17l-48.39-36.66c-31.76-24.11-83.73-24.11-115.5,0l-116.82,89-.77,1.5C427.86,883.47,425.3,913.73,455.55,932.48Z"/>
    <path class="cls-17" d="M455.55,932.48c-30.24-18.75-27.69-49-21.92-68.42l-77.11,149.78,359-203.39-.37-.28Z"/>
    <path class="cls-14"
          d="M1039.15,716.54c-53.62-20.34-127.42-17.17-174.71,9.52l-149,84.4-96.14,54.47c-10,21.07-17.4,48.75-.4,67.56L747.48,893.6v.48a233.29,233.29,0,0,1,67.86-8c33.19.87,65.93,8.42,91.14,22.64L970,944.49C1076.09,850.72,1052.41,751.59,1039.15,716.54Z"/>
    <path class="cls-18"
          d="M618.94,932.48c-17-18.8-9.63-46.48.4-67.56L356.51,1013.84l-45,87.43H371.4L711.22,908.74a162.83,162.83,0,0,1,36.26-14.67v-.48Z"/>
    <path class="cls-19"
          d="M1040.11,716.92l-1-.38c13.26,35,36.94,134.17-69.19,227.95l12.34,7C1102.85,836.36,1047.23,729.36,1040.11,716.92Z"/>
    <path class="cls-20"
          d="M1090,743.14l-30.34-17.09a149,149,0,0,0-19.57-9.14c7.12,12.44,62.74,119.44-57.81,234.52l86.76,48.85C1162.53,879.82,1113.67,779,1090,743.14Z"/>
    <path class="cls-19"
          d="M605.47,968.66,601.35,971c-2.19,25.55-1.07,85.1,47.39,130.29h11C595.55,1047.35,605.46,968.7,605.47,968.66Z"/>
    <path class="cls-20"
          d="M648.62,944.21l-43.15,24.45s-9.92,78.69,54.32,132.63H858.34C681.77,1052.67,653.21,968.69,648.62,944.21Z"/>
    <path class="cls-21" d="M566.46,1073.5c-36.15-11.71-38.9-47.71-38.66-60.77l-156.19,88.5h877l-32.7-18.41Z"/>
</svg>